<svg xmlns="http://www.w3.org/2000/svg" width="97.989" height="77.223" viewBox="0 0 97.989 77.223">
  <path id="Path_1" data-name="Path 1" d="M1522.2,73.54c.311-.192-1.279-1.427-1.279-1.427a27.7,27.7,0,0,0-4.2-3.011c-1.819-.941-7.277-1.882-8.218-2.258s-1.757-2.384-2.51-3.074a3.233,3.233,0,0,0-2.823-.439c-.878.188-7.716-.439-8.531,0a4.9,4.9,0,0,0-1.757,1.568c-.251.439-2.07,2.384-2.07,3.137s-2.258,3.2-2.823,3.764a11.241,11.241,0,0,0-1.443,3.513c-.125.627-1.318-.188-2.133.376s-.627,1.129-1,1.506a10.994,10.994,0,0,0-2.132,2.823c-.377,1-3.2,6.9-3.2,6.9h-.878a12.6,12.6,0,0,0-2.321,1.819c-.439.627.439,1.129.439,1.129s-.816,1.255-.439,1.882-1.066.878-.565,1.694a10.786,10.786,0,0,0,1,1.38v.941s-1-.565-1,.376a8.243,8.243,0,0,0,.565,2.572c.062,0,1,.251,1,.251a16.51,16.51,0,0,1-1.569,2.321,2.72,2.72,0,0,0-.5,1.756s.439,1.568,0,1.945-3.827,5.646-3.89,7.026-1.066,2.007-1.568,2.886-1.945,5.395-1.568,6.148,1.066.816,1.129,1.255-.413.429-.413.83.452.9,0,.953-.853,1.154-1.1,1.555-.954.953-1.154,1.505-2.257,1.154-4.013.4-9.95-3.128-13.147-1.907-9.92,5.41-7.716,7.394a31.169,31.169,0,0,0,10.03,5.291,55.706,55.706,0,0,1,6.283,1.984c.881.441,21.053-.882,26.124-1.984s20.943-4.3,24.581-3.748,10.472.661,12.015,0,9.259-1.653,11.573-2.2,8.157-.992,6.724-3.2-3.968-2.645-6.172-2.976a25.725,25.725,0,0,0-7.165,0c-1.212.331-11.022.945-11.022.945a1.5,1.5,0,0,0,0-1.505c-.478-.7-.543-.326-.478-1.555s.718-4.751-.391-6.643-4.566-8.479-4.631-10.11,1.631-1.891.979-2.935-5.087-4.845-5.152-5.683.913-.121.979-2.078.913-7.174.326-9.066-1.63-5.74-2.153-6.261-1.63-.947-.782-1.289,3.679-.864,3.959-1.516,2.237-2.609,2.237-3.652-.392-.725.587-1.308,5.087-1.3,5.87-.648,3.327.978,4.175.978A15.259,15.259,0,0,0,1522.2,73.54Z" transform="translate(-1439.93 -63.171)" fill="#2c646a"/>
</svg>
