<svg xmlns="http://www.w3.org/2000/svg" xmlns:xlink="http://www.w3.org/1999/xlink" width="344" height="344" viewBox="0 0 344 344">
  <defs>
    <clipPath id="clip-pattern-squares">
      <rect width="344" height="344"/>
    </clipPath>
  </defs>
  <g id="pattern-squares" clip-path="url(#clip-pattern-squares)">
    <g id="Rectangle_23" data-name="Rectangle 23" fill="none" stroke="#9dd0bf" stroke-width="2" opacity="0.12">
      <rect width="76" height="76" rx="13" stroke="none"/>
      <rect x="1" y="1" width="74" height="74" rx="12" fill="none"/>
    </g>
    <g id="Rectangle_23-2" data-name="Rectangle 23" transform="translate(86)" fill="none" stroke="#9dd0bf" stroke-width="2" opacity="0.12">
      <rect width="76" height="76" rx="13" stroke="none"/>
      <rect x="1" y="1" width="74" height="74" rx="12" fill="none"/>
    </g>
    <g id="Rectangle_23-3" data-name="Rectangle 23" transform="translate(172)" fill="none" stroke="#9dd0bf" stroke-width="2" opacity="0.12">
      <rect width="76" height="76" rx="13" stroke="none"/>
      <rect x="1" y="1" width="74" height="74" rx="12" fill="none"/>
    </g>
    <g id="Rectangle_23-4" data-name="Rectangle 23" transform="translate(258)" fill="none" stroke="#9dd0bf" stroke-width="2" opacity="0.12">
      <rect width="76" height="76" rx="13" stroke="none"/>
      <rect x="1" y="1" width="74" height="74" rx="12" fill="none"/>
    </g>
    <g id="Rectangle_23-5" data-name="Rectangle 23" transform="translate(0 86)" fill="none" stroke="#9dd0bf" stroke-width="2" opacity="0.12">
      <rect width="76" height="76" rx="13" stroke="none"/>
      <rect x="1" y="1" width="74" height="74" rx="12" fill="none"/>
    </g>
    <g id="Rectangle_23-6" data-name="Rectangle 23" transform="translate(86 86)" fill="none" stroke="#9dd0bf" stroke-width="2" opacity="0.12">
      <rect width="76" height="76" rx="13" stroke="none"/>
      <rect x="1" y="1" width="74" height="74" rx="12" fill="none"/>
    </g>
    <g id="Rectangle_23-7" data-name="Rectangle 23" transform="translate(172 86)" fill="none" stroke="#9dd0bf" stroke-width="2" opacity="0.12">
      <rect width="76" height="76" rx="13" stroke="none"/>
      <rect x="1" y="1" width="74" height="74" rx="12" fill="none"/>
    </g>
    <g id="Rectangle_23-8" data-name="Rectangle 23" transform="translate(258 86)" fill="none" stroke="#9dd0bf" stroke-width="2" opacity="0.12">
      <rect width="76" height="76" rx="13" stroke="none"/>
      <rect x="1" y="1" width="74" height="74" rx="12" fill="none"/>
    </g>
    <g id="Rectangle_23-9" data-name="Rectangle 23" transform="translate(0 172)" fill="none" stroke="#9dd0bf" stroke-width="2" opacity="0.12">
      <rect width="76" height="76" rx="13" stroke="none"/>
      <rect x="1" y="1" width="74" height="74" rx="12" fill="none"/>
    </g>
    <g id="Rectangle_35" data-name="Rectangle 35" transform="translate(0 258)" fill="none" stroke="#9dd0bf" stroke-width="2" opacity="0.12">
      <rect width="76" height="76" rx="13" stroke="none"/>
      <rect x="1" y="1" width="74" height="74" rx="12" fill="none"/>
    </g>
    <g id="Rectangle_23-10" data-name="Rectangle 23" transform="translate(86 172)" fill="none" stroke="#9dd0bf" stroke-width="2" opacity="0.12">
      <rect width="76" height="76" rx="13" stroke="none"/>
      <rect x="1" y="1" width="74" height="74" rx="12" fill="none"/>
    </g>
    <g id="Rectangle_34" data-name="Rectangle 34" transform="translate(86 258)" fill="none" stroke="#9dd0bf" stroke-width="2" opacity="0.12">
      <rect width="76" height="76" rx="13" stroke="none"/>
      <rect x="1" y="1" width="74" height="74" rx="12" fill="none"/>
    </g>
    <g id="Rectangle_23-11" data-name="Rectangle 23" transform="translate(172 172)" fill="none" stroke="#9dd0bf" stroke-width="2" opacity="0.12">
      <rect width="76" height="76" rx="13" stroke="none"/>
      <rect x="1" y="1" width="74" height="74" rx="12" fill="none"/>
    </g>
    <g id="Rectangle_33" data-name="Rectangle 33" transform="translate(172 258)" fill="none" stroke="#9dd0bf" stroke-width="2" opacity="0.12">
      <rect width="76" height="76" rx="13" stroke="none"/>
      <rect x="1" y="1" width="74" height="74" rx="12" fill="none"/>
    </g>
    <g id="Rectangle_23-12" data-name="Rectangle 23" transform="translate(258 172)" fill="none" stroke="#9dd0bf" stroke-width="2" opacity="0.12">
      <rect width="76" height="76" rx="13" stroke="none"/>
      <rect x="1" y="1" width="74" height="74" rx="12" fill="none"/>
    </g>
    <g id="Rectangle_32" data-name="Rectangle 32" transform="translate(258 258)" fill="none" stroke="#9dd0bf" stroke-width="2" opacity="0.12">
      <rect width="76" height="76" rx="13" stroke="none"/>
      <rect x="1" y="1" width="74" height="74" rx="12" fill="none"/>
    </g>
    <rect id="Rectangle_29" data-name="Rectangle 29" width="76" height="76" rx="13" transform="translate(172 86)" fill="#9dd0bf" opacity="0.12"/>
    <rect id="Rectangle_30" data-name="Rectangle 30" width="76" height="76" rx="13" fill="#9dd0bf" opacity="0.12"/>
    <rect id="Rectangle_36" data-name="Rectangle 36" width="76" height="76" rx="13" transform="translate(258 258)" fill="#9dd0bf" opacity="0.12"/>
  </g>
</svg>
